<svg xmlns="http://www.w3.org/2000/svg" fill="none" viewBox="0 0 68 68" height="68" width="68">
<g clip-path="url(#clip0_9116_7032)">
<path fill="black" d="M8.68655 0.115516C9.65348 1.12441 10.6257 2.1333 11.5348 3.19474C11.9394 3.66766 12.344 4.13532 12.7172 4.62926C13.558 5.7485 14.136 7.01487 14.609 8.32328C15.1555 9.83136 15.66 11.3552 16.1855 12.8738C16.6479 14.2032 17.1892 15.5011 17.9617 16.6834C18.7289 17.8605 19.6906 18.8221 21.0148 19.3843C21.2618 19.4894 21.5298 19.5472 21.7085 19.8099C22.3076 20.6822 22.9855 21.4914 23.6791 22.2901C23.9314 22.5791 24.2151 22.8366 24.4516 23.215C24.3045 23.1466 24.1994 23.1151 24.1048 23.0573C23.7369 22.8419 23.3691 22.6212 23.0012 22.3952C21.6717 21.5755 20.4 20.6612 18.9496 20.0411C18.0878 19.6733 17.1997 19.4263 16.2643 19.4106C15.145 19.3896 14.1097 19.6996 13.1218 20.2145C12.7487 20.409 12.3651 20.5351 11.9394 20.3774C11.3403 20.1567 10.7465 19.9308 10.1422 19.7206C9.42751 19.4684 8.70757 19.2477 7.93508 19.3685C7.44111 19.4474 6.94714 19.4999 6.45317 19.5682C5.63864 19.6838 4.81885 19.7259 4.00958 19.8888C3.36847 20.0201 2.7221 20.1462 2.0915 20.3091C1.46615 20.4668 0.851312 20.6664 0.23122 20.8556C0.147139 20.8819 0.0472938 20.8977 -1.35547e-06 20.987C0.0472939 21.0711 0.115609 21.0553 0.173414 21.0605C0.677897 21.1183 1.18238 21.1656 1.68161 21.2392C2.4646 21.3601 3.2476 21.4914 4.02009 21.6596C4.74528 21.8172 5.45471 22.0274 6.1694 22.2218C6.91561 22.432 7.66708 22.6212 8.4238 22.7946C8.98609 22.9207 9.54838 23.0468 10.1054 23.1782C10.9042 23.3621 11.7029 23.546 12.4964 23.7404C13.0482 23.8718 13.5947 24.0242 14.1465 24.1608C14.8244 24.3289 15.5076 24.4813 16.2065 24.5181C17.6201 24.5864 19.0074 24.3972 20.3895 24.0977C21.1567 23.9296 21.9082 23.7089 22.6597 23.4777C22.8278 23.4251 22.9802 23.3043 23.2009 23.3884C24.5042 23.8718 25.655 24.6074 26.6903 25.5217C27.7202 26.4308 28.8028 27.2715 29.9747 27.9862C30.0535 28.0335 30.1428 28.0755 30.1901 28.1806C29.5437 28.1806 28.9026 28.1806 28.2668 28.1806C28.209 28.1806 28.1459 28.1596 28.0881 28.1386C27.2158 27.7445 26.3014 27.5027 25.3555 27.3661C24.4148 27.2295 23.4847 27.2768 22.5651 27.4239C21.6244 27.5763 20.7363 27.9284 19.843 28.2542C19.1966 28.4906 18.5502 28.7271 17.8986 28.9583C17.2522 29.1947 16.6006 29.4207 15.9542 29.6571C15.0031 30.0092 14.0414 30.3192 13.0377 30.4821C11.6294 30.7081 10.2105 30.6082 8.79691 30.5242C8.53416 30.5084 8.27141 30.4926 8.01391 30.4716C7.08377 30.3823 6.15363 30.2825 5.22875 30.1879C5.17094 30.1826 5.09212 30.1563 5.0711 30.2352C5.05008 30.3087 5.11839 30.335 5.17094 30.3665C6.01175 30.8342 6.87882 31.2493 7.77218 31.6119C8.86522 32.0533 9.98454 32.4211 11.1354 32.6786C11.808 32.831 12.4859 32.9728 13.1743 33.0359C13.8785 33.1042 14.5879 33.162 15.2921 33.2303C16.4587 33.3459 17.6306 33.3932 18.8025 33.4352C20.1057 33.4825 21.409 33.4195 22.7017 33.2145C23.5635 33.0779 24.4096 32.8835 25.1768 32.4841C26.5957 31.7485 27.7413 30.7081 28.5243 29.2893C28.5926 29.1685 28.6714 29.0896 28.8291 29.0844C30.0535 29.0739 31.2516 29.221 32.4393 29.5258C33.0068 29.6729 33.5586 29.8568 34.1104 30.0512C34.8881 30.3192 35.6711 30.5925 36.4646 30.8657C36.4278 30.8972 36.4015 30.9288 36.3753 30.9393C35.8393 31.1022 35.3348 31.3386 34.8461 31.6066C34.7199 31.6749 34.6148 31.6434 34.5045 31.5593C34.226 31.3439 33.9002 31.2335 33.5638 31.1863C32.7073 31.0601 31.8717 31.2125 31.0677 31.5173C29.775 32.006 28.6451 32.7521 27.694 33.7558C27.5153 33.9449 27.2525 34.2287 27.1054 34.4441C27.0634 34.5072 27.0161 34.5702 26.974 34.6386C26.5063 35.369 26.1227 36.1204 26.17 37.0294C26.2015 37.6863 26.6325 38.301 27.2368 38.5533C27.9357 38.8475 28.6556 38.8213 29.3703 38.6794C30.5737 38.4377 31.6457 37.8912 32.6127 37.1503C33.6479 36.3516 34.5413 35.4268 35.03 34.1761C35.2402 33.6454 35.3768 33.0937 35.1981 32.5367C35.1141 32.274 35.2087 32.1951 35.4031 32.1058C36.1178 31.7748 36.864 31.5698 37.6417 31.4858C38.0148 31.4437 38.3985 31.4175 38.7663 31.5015C39.4022 31.6487 40.038 31.8168 40.6739 31.9639C41.9088 32.2477 43.1437 32.5104 44.3892 32.7521C45.5032 32.9676 46.6121 33.2145 47.7209 33.4563C48.5827 33.6402 49.4498 33.8241 50.3011 34.0343C51.3521 34.297 52.3926 34.5965 53.4173 34.9538C53.7641 35.0747 54.1267 35.1745 54.4788 35.3637C54.1898 35.4215 51.6201 35.1693 50.5796 35.143C49.3499 35.1115 48.115 35.0589 46.8801 35.2113C46.2652 35.2849 45.6451 35.2849 45.0303 35.3637C44.0949 35.4793 43.17 35.6474 42.2556 35.8629C41.3623 36.0731 40.4952 36.3673 39.6597 36.7352C38.2513 37.35 37.0111 38.2117 35.9338 39.3099C35.6028 39.6462 35.2612 39.9773 34.9196 40.2978C34.1576 41.0124 33.3168 41.6483 32.5444 42.3629C31.9505 42.9146 31.362 43.4769 30.826 44.0864C30.1586 44.8431 29.5595 45.647 28.992 46.472C28.5558 47.1026 28.1249 47.7279 27.5889 48.2691C26.685 49.1834 25.6813 49.9821 24.6303 50.723C24.0838 51.1066 23.5425 51.4902 22.9645 51.816C22.9119 51.8475 22.8436 51.8791 22.8594 51.9474C22.8751 52.0157 22.9329 51.9947 22.9855 51.9894C23.758 51.9053 24.5199 51.7845 25.2872 51.6479C26.2383 51.4744 27.1842 51.2643 28.1196 51.0225C29.3283 50.7073 30.5159 50.3342 31.693 49.9086C33.4535 49.2728 35.1561 48.4951 36.8009 47.607C39.0133 46.4142 41.0838 45.006 42.9966 43.3665C44.3209 42.2263 45.5558 40.9967 46.6804 39.662C47.4476 38.7477 48.094 37.7546 48.6983 36.7299C48.7929 36.567 48.8665 36.3778 49.1029 36.3516C49.6495 36.299 50.2012 36.2044 50.7478 36.1992C51.9301 36.1887 53.1073 36.1361 54.2896 36.2622C55.5719 36.3989 56.8015 36.6984 57.9839 37.1976C59.5026 37.8386 60.7954 38.8107 61.9725 39.951C62.4507 40.4134 62.8501 40.9494 63.2915 41.4433C63.3756 41.5379 63.3966 41.622 63.2127 41.6745C63.4386 41.6535 63.549 41.7901 63.6436 41.9268C63.7855 42.1369 63.9063 42.3629 64.064 42.5573C64.4686 43.0565 64.7419 43.6345 65.0677 44.181C65.5617 45.0165 65.9558 45.8993 66.3762 46.7768C66.5549 47.1499 66.991 47.3653 67.3221 47.255C67.9842 47.029 68.1734 46.5403 67.8634 45.9098C67.5165 45.2162 67.175 44.5225 66.7861 43.85C66.2711 42.9672 65.7351 42.0949 65.1255 41.2752C64.3688 40.2558 63.4649 39.3625 62.6451 38.3956C61.9725 37.6022 61.3577 36.7667 60.8164 35.8787C60.2541 34.9538 59.7549 33.9922 59.3397 32.9886C59.2714 32.831 59.2767 32.7206 59.3555 32.5787C59.7128 31.9377 59.9178 31.2388 59.9756 30.5137C60.0281 29.8884 59.9966 29.2525 60.0281 28.622C60.0649 27.8601 59.9966 27.1086 59.9125 26.3467C59.8389 25.6689 59.7181 24.9963 59.6918 24.3184C59.6655 23.6563 59.6287 22.9995 59.8074 22.3374C59.9861 21.6596 60.3224 21.0605 60.643 20.451C61.1002 19.584 61.489 18.6907 61.8253 17.7711C62.1459 16.8778 62.4454 15.974 62.6767 15.0545C62.8816 14.24 63.013 13.415 63.1338 12.59C63.26 11.7283 63.3388 10.8613 63.4544 9.99425C63.5437 9.32166 63.5648 8.63856 63.6383 7.96071C63.6751 7.62966 63.6488 7.29336 63.7014 6.96758C63.8222 6.26345 63.8065 5.55933 63.838 4.84995C63.838 4.79215 63.8643 4.71333 63.7802 4.69757C63.7119 4.6818 63.6804 4.75537 63.6436 4.80266C63.4491 5.06014 63.2547 5.31762 63.0603 5.57509C62.4717 6.33702 61.8201 7.06216 61.0686 7.65593C59.6025 8.81196 58.4306 10.2044 57.532 11.8229C56.8541 13.0367 56.3181 14.3136 55.9029 15.643C55.5351 16.82 55.2618 18.0181 55.0674 19.2267C54.9781 19.7994 54.8992 20.3827 54.8729 20.966C54.7941 22.8261 54.7626 24.681 55.1252 26.5254C55.3249 27.5343 55.5929 28.5116 55.9765 29.4575C56.502 30.7554 57.243 31.9061 58.3045 32.8362C58.4148 32.9308 58.4832 33.0464 58.5357 33.1778C58.6408 33.4352 59.8337 35.8681 60.1963 36.5565C59.655 36.2307 59.1716 35.9365 58.6566 35.6317C58.7354 35.5896 56.7858 34.7174 56.7122 34.6858C55.5561 34.1656 54.3632 33.74 53.1546 33.3827C52.6343 33.2303 52.1981 33.0359 51.8776 32.5735C51.5097 32.048 51.1787 31.5068 50.9212 30.9183C50.8423 30.7343 50.8371 30.582 51.0158 30.4296C51.247 30.2404 51.4099 29.9882 51.5255 29.7097C51.9196 28.7428 52.0405 27.7602 51.8828 26.7145C51.7672 25.9736 51.6096 25.259 51.3311 24.5654C50.9632 23.6511 50.4377 22.8471 49.6284 22.2533C48.7771 21.628 47.8365 21.7331 47.2321 22.5108C46.817 23.0415 46.6278 23.6721 46.5385 24.3237C46.4071 25.3063 46.5227 26.2732 46.7802 27.2295C47.0272 28.1333 47.3951 28.9793 47.9784 29.7097C48.4934 30.3455 49.0872 30.8867 49.9805 30.8972C50.0856 30.8972 50.1119 30.9656 50.1382 31.0444C50.3011 31.5436 50.5113 32.0217 50.774 32.4789C50.8161 32.5472 50.9317 32.6155 50.8634 32.6996C50.8056 32.7679 50.7005 32.7101 50.6164 32.6891C49.6337 32.4421 48.6457 32.2319 47.6525 32.0533C47.5002 32.027 47.374 31.9639 47.2532 31.8746C46.3335 31.16 45.6556 30.2457 45.0671 29.2578C44.2 27.8023 43.5694 26.2416 43.0334 24.639C42.923 24.3132 42.8337 24.0294 43.2436 23.8613C43.2593 23.856 43.2699 23.835 43.2804 23.8245C44.1737 23.031 44.5048 21.9538 44.6992 20.8346C44.8096 20.204 44.8201 19.5577 44.7938 18.9061C44.757 17.9603 44.5836 17.0512 44.2736 16.1685C43.9635 15.2804 43.5116 14.4765 42.7969 13.8512C42.3502 13.4571 41.8247 13.2048 41.2151 13.2732C40.6844 13.331 40.2377 13.5989 39.8856 14.0036C39.0028 15.023 38.6927 16.2578 38.6034 17.5557C38.5141 18.8746 38.6454 20.1725 39.0974 21.4284C39.3496 22.1325 39.6807 22.7946 40.1799 23.3568C40.6476 23.8875 41.1889 24.2974 41.9298 24.3552C42.0717 24.3657 42.0822 24.4761 42.119 24.5759C42.2451 24.9647 42.366 25.3588 42.5079 25.7424C42.7128 26.2994 42.9283 26.8512 43.149 27.4239C43.0807 27.3924 43.0281 27.3766 42.9861 27.3504C42.1873 26.8617 41.3623 26.4308 40.5057 26.0577C40.3586 25.9947 40.3008 25.8843 40.306 25.7267C40.3218 25.4114 40.2167 25.1224 40.0801 24.8491C39.8121 24.3237 39.4074 23.9138 38.9397 23.567C37.7626 22.6947 36.4278 22.2481 34.9774 22.122C34.0841 22.0432 33.2117 22.101 32.3867 22.4898C31.7614 22.7841 31.2937 23.2307 31.2306 23.9611C31.1833 24.5339 31.4355 25.0173 31.7929 25.4429C32.6074 26.4045 33.6742 26.9825 34.8618 27.3398C35.7394 27.6078 36.638 27.7287 37.5524 27.6656C38.4615 27.5973 39.3181 27.3924 39.9592 26.6778C40.0643 26.5622 40.1536 26.5674 40.2798 26.6305C40.8473 26.9037 41.4096 27.1822 41.9561 27.4922C42.7128 27.9231 43.3644 28.4591 43.8532 29.1842C44.2105 29.7149 44.5626 30.2457 44.9199 30.7711C45.1091 31.0496 45.3088 31.3176 45.5138 31.6014C45.3824 31.6539 45.2878 31.6276 45.1932 31.6066C44.3366 31.449 43.4748 31.3019 42.6235 31.1284C41.7196 30.9445 40.8158 30.7554 39.9119 30.5504C39.1552 30.377 38.3985 30.1984 37.6522 29.9934C36.4436 29.6571 35.2454 29.2736 34.0788 28.8164C32.7178 28.2804 31.404 27.6551 30.1533 26.9037C29.5385 26.5359 28.9394 26.1365 28.498 25.548C27.9357 24.7913 27.7413 23.8928 27.5468 22.9943C27.5311 22.9102 27.5468 22.8419 27.6257 22.7893C28.3719 22.3059 28.6451 21.5387 28.7765 20.7295C28.9552 19.5945 28.8133 18.4805 28.3508 17.4243C28.0934 16.8411 27.7623 16.3103 27.2 15.9688C26.6903 15.6588 26.1175 15.7323 25.6813 16.1369C25.0822 16.6887 24.8983 17.4243 24.7985 18.1863C24.6828 19.0533 24.7722 19.915 25.0507 20.7453C25.3713 21.6911 25.7917 22.5686 26.8427 22.9207C26.9372 22.9522 26.9793 23.0048 26.9951 23.1046C27.0949 23.5985 27.2 24.0925 27.3839 24.5654C27.426 24.6652 27.4733 24.7756 27.447 24.8964C27.3366 24.8912 27.2736 24.8176 27.2053 24.7546C26.6272 24.2238 26.0649 23.6721 25.5184 23.0993C24.4096 21.9381 23.306 20.7663 22.3128 19.4999C22.1815 19.3318 22.1815 19.1951 22.2603 19.0217C22.3811 18.7485 22.4495 18.4542 22.481 18.1652C22.5861 17.2404 22.5546 16.3209 22.4074 15.396C22.2971 14.7182 22.0869 14.0719 21.8346 13.4413C21.5193 12.6584 21.1199 11.9122 20.6417 11.2081C20.1898 10.546 19.7852 9.85238 19.2649 9.23759C19.0127 8.93807 18.7709 8.62805 18.5134 8.33379C18.1666 7.92918 17.8355 7.51406 17.4624 7.13047C16.0751 5.70121 14.651 4.30872 13.0955 3.05812C11.8763 2.0755 10.6309 1.12967 9.29613 0.315195C9.10695 0.199593 8.94405 0.0051688 8.66553 -0.00534049C8.66028 0.0577153 8.66553 0.0944972 8.68655 0.115516Z"></path>
<path fill="url(#paint0_linear_9116_7032)" d="M8.68655 0.115516C9.65348 1.12441 10.6257 2.1333 11.5348 3.19474C11.9394 3.66766 12.344 4.13532 12.7172 4.62926C13.558 5.7485 14.136 7.01487 14.609 8.32328C15.1555 9.83136 15.66 11.3552 16.1855 12.8738C16.6479 14.2032 17.1892 15.5011 17.9617 16.6834C18.7289 17.8605 19.6906 18.8221 21.0148 19.3843C21.2618 19.4894 21.5298 19.5472 21.7085 19.8099C22.3076 20.6822 22.9855 21.4914 23.6791 22.2901C23.9314 22.5791 24.2151 22.8366 24.4516 23.215C24.3045 23.1466 24.1994 23.1151 24.1048 23.0573C23.7369 22.8419 23.3691 22.6212 23.0012 22.3952C21.6717 21.5755 20.4 20.6612 18.9496 20.0411C18.0878 19.6733 17.1997 19.4263 16.2643 19.4106C15.145 19.3896 14.1097 19.6996 13.1218 20.2145C12.7487 20.409 12.3651 20.5351 11.9394 20.3774C11.3403 20.1567 10.7465 19.9308 10.1422 19.7206C9.42751 19.4684 8.70757 19.2477 7.93508 19.3685C7.44111 19.4474 6.94714 19.4999 6.45317 19.5682C5.63864 19.6838 4.81885 19.7259 4.00958 19.8888C3.36847 20.0201 2.7221 20.1462 2.0915 20.3091C1.46615 20.4668 0.851312 20.6664 0.23122 20.8556C0.147139 20.8819 0.0472938 20.8977 -1.35547e-06 20.987C0.0472939 21.0711 0.115609 21.0553 0.173414 21.0605C0.677897 21.1183 1.18238 21.1656 1.68161 21.2392C2.4646 21.3601 3.2476 21.4914 4.02009 21.6596C4.74528 21.8172 5.45471 22.0274 6.1694 22.2218C6.91561 22.432 7.66708 22.6212 8.4238 22.7946C8.98609 22.9207 9.54838 23.0468 10.1054 23.1782C10.9042 23.3621 11.7029 23.546 12.4964 23.7404C13.0482 23.8718 13.5947 24.0242 14.1465 24.1608C14.8244 24.3289 15.5076 24.4813 16.2065 24.5181C17.6201 24.5864 19.0074 24.3972 20.3895 24.0977C21.1567 23.9296 21.9082 23.7089 22.6597 23.4777C22.8278 23.4251 22.9802 23.3043 23.2009 23.3884C24.5042 23.8718 25.655 24.6074 26.6903 25.5217C27.7202 26.4308 28.8028 27.2715 29.9747 27.9862C30.0535 28.0335 30.1428 28.0755 30.1901 28.1806C29.5437 28.1806 28.9026 28.1806 28.2668 28.1806C28.209 28.1806 28.1459 28.1596 28.0881 28.1386C27.2158 27.7445 26.3014 27.5027 25.3555 27.3661C24.4148 27.2295 23.4847 27.2768 22.5651 27.4239C21.6244 27.5763 20.7363 27.9284 19.843 28.2542C19.1966 28.4906 18.5502 28.7271 17.8986 28.9583C17.2522 29.1947 16.6006 29.4207 15.9542 29.6571C15.0031 30.0092 14.0414 30.3192 13.0377 30.4821C11.6294 30.7081 10.2105 30.6082 8.79691 30.5242C8.53416 30.5084 8.27141 30.4926 8.01391 30.4716C7.08377 30.3823 6.15363 30.2825 5.22875 30.1879C5.17094 30.1826 5.09212 30.1563 5.0711 30.2352C5.05008 30.3087 5.11839 30.335 5.17094 30.3665C6.01175 30.8342 6.87882 31.2493 7.77218 31.6119C8.86522 32.0533 9.98454 32.4211 11.1354 32.6786C11.808 32.831 12.4859 32.9728 13.1743 33.0359C13.8785 33.1042 14.5879 33.162 15.2921 33.2303C16.4587 33.3459 17.6306 33.3932 18.8025 33.4352C20.1057 33.4825 21.409 33.4195 22.7017 33.2145C23.5635 33.0779 24.4096 32.8835 25.1768 32.4841C26.5957 31.7485 27.7413 30.7081 28.5243 29.2893C28.5926 29.1685 28.6714 29.0896 28.8291 29.0844C30.0535 29.0739 31.2516 29.221 32.4393 29.5258C33.0068 29.6729 33.5586 29.8568 34.1104 30.0512C34.8881 30.3192 35.6711 30.5925 36.4646 30.8657C36.4278 30.8972 36.4015 30.9288 36.3753 30.9393C35.8393 31.1022 35.3348 31.3386 34.8461 31.6066C34.7199 31.6749 34.6148 31.6434 34.5045 31.5593C34.226 31.3439 33.9002 31.2335 33.5638 31.1863C32.7073 31.0601 31.8717 31.2125 31.0677 31.5173C29.775 32.006 28.6451 32.7521 27.694 33.7558C27.5153 33.9449 27.2525 34.2287 27.1054 34.4441C27.0634 34.5072 27.0161 34.5702 26.974 34.6386C26.5063 35.369 26.1227 36.1204 26.17 37.0294C26.2015 37.6863 26.6325 38.301 27.2368 38.5533C27.9357 38.8475 28.6556 38.8213 29.3703 38.6794C30.5737 38.4377 31.6457 37.8912 32.6127 37.1503C33.6479 36.3516 34.5413 35.4268 35.03 34.1761C35.2402 33.6454 35.3768 33.0937 35.1981 32.5367C35.1141 32.274 35.2087 32.1951 35.4031 32.1058C36.1178 31.7748 36.864 31.5698 37.6417 31.4858C38.0148 31.4437 38.3985 31.4175 38.7663 31.5015C39.4022 31.6487 40.038 31.8168 40.6739 31.9639C41.9088 32.2477 43.1437 32.5104 44.3892 32.7521C45.5032 32.9676 46.6121 33.2145 47.7209 33.4563C48.5827 33.6402 49.4498 33.8241 50.3011 34.0343C51.3521 34.297 52.3926 34.5965 53.4173 34.9538C53.7641 35.0747 54.1267 35.1745 54.4788 35.3637C54.1898 35.4215 51.6201 35.1693 50.5796 35.143C49.3499 35.1115 48.115 35.0589 46.8801 35.2113C46.2652 35.2849 45.6451 35.2849 45.0303 35.3637C44.0949 35.4793 43.17 35.6474 42.2556 35.8629C41.3623 36.0731 40.4952 36.3673 39.6597 36.7352C38.2513 37.35 37.0111 38.2117 35.9338 39.3099C35.6028 39.6462 35.2612 39.9773 34.9196 40.2978C34.1576 41.0124 33.3168 41.6483 32.5444 42.3629C31.9505 42.9146 31.362 43.4769 30.826 44.0864C30.1586 44.8431 29.5595 45.647 28.992 46.472C28.5558 47.1026 28.1249 47.7279 27.5889 48.2691C26.685 49.1834 25.6813 49.9821 24.6303 50.723C24.0838 51.1066 23.5425 51.4902 22.9645 51.816C22.9119 51.8475 22.8436 51.8791 22.8594 51.9474C22.8751 52.0157 22.9329 51.9947 22.9855 51.9894C23.758 51.9053 24.5199 51.7845 25.2872 51.6479C26.2383 51.4744 27.1842 51.2643 28.1196 51.0225C29.3283 50.7073 30.5159 50.3342 31.693 49.9086C33.4535 49.2728 35.1561 48.4951 36.8009 47.607C39.0133 46.4142 41.0838 45.006 42.9966 43.3665C44.3209 42.2263 45.5558 40.9967 46.6804 39.662C47.4476 38.7477 48.094 37.7546 48.6983 36.7299C48.7929 36.567 48.8665 36.3778 49.1029 36.3516C49.6495 36.299 50.2012 36.2044 50.7478 36.1992C51.9301 36.1887 53.1073 36.1361 54.2896 36.2622C55.5719 36.3989 56.8015 36.6984 57.9839 37.1976C59.5026 37.8386 60.7954 38.8107 61.9725 39.951C62.4507 40.4134 62.8501 40.9494 63.2915 41.4433C63.3756 41.5379 63.3966 41.622 63.2127 41.6745C63.4386 41.6535 63.549 41.7901 63.6436 41.9268C63.7855 42.1369 63.9063 42.3629 64.064 42.5573C64.4686 43.0565 64.7419 43.6345 65.0677 44.181C65.5617 45.0165 65.9558 45.8993 66.3762 46.7768C66.5549 47.1499 66.991 47.3653 67.3221 47.255C67.9842 47.029 68.1734 46.5403 67.8634 45.9098C67.5165 45.2162 67.175 44.5225 66.7861 43.85C66.2711 42.9672 65.7351 42.0949 65.1255 41.2752C64.3688 40.2558 63.4649 39.3625 62.6451 38.3956C61.9725 37.6022 61.3577 36.7667 60.8164 35.8787C60.2541 34.9538 59.7549 33.9922 59.3397 32.9886C59.2714 32.831 59.2767 32.7206 59.3555 32.5787C59.7128 31.9377 59.9178 31.2388 59.9756 30.5137C60.0281 29.8884 59.9966 29.2525 60.0281 28.622C60.0649 27.8601 59.9966 27.1086 59.9125 26.3467C59.8389 25.6689 59.7181 24.9963 59.6918 24.3184C59.6655 23.6563 59.6287 22.9995 59.8074 22.3374C59.9861 21.6596 60.3224 21.0605 60.643 20.451C61.1002 19.584 61.489 18.6907 61.8253 17.7711C62.1459 16.8778 62.4454 15.974 62.6767 15.0545C62.8816 14.24 63.013 13.415 63.1338 12.59C63.26 11.7283 63.3388 10.8613 63.4544 9.99425C63.5437 9.32166 63.5648 8.63856 63.6383 7.96071C63.6751 7.62966 63.6488 7.29336 63.7014 6.96758C63.8222 6.26345 63.8065 5.55933 63.838 4.84995C63.838 4.79215 63.8643 4.71333 63.7802 4.69757C63.7119 4.6818 63.6804 4.75537 63.6436 4.80266C63.4491 5.06014 63.2547 5.31762 63.0603 5.57509C62.4717 6.33702 61.8201 7.06216 61.0686 7.65593C59.6025 8.81196 58.4306 10.2044 57.532 11.8229C56.8541 13.0367 56.3181 14.3136 55.9029 15.643C55.5351 16.82 55.2618 18.0181 55.0674 19.2267C54.9781 19.7994 54.8992 20.3827 54.8729 20.966C54.7941 22.8261 54.7626 24.681 55.1252 26.5254C55.3249 27.5343 55.5929 28.5116 55.9765 29.4575C56.502 30.7554 57.243 31.9061 58.3045 32.8362C58.4148 32.9308 58.4832 33.0464 58.5357 33.1778C58.6408 33.4352 59.8337 35.8681 60.1963 36.5565C59.655 36.2307 59.1716 35.9365 58.6566 35.6317C58.7354 35.5896 56.7858 34.7174 56.7122 34.6858C55.5561 34.1656 54.3632 33.74 53.1546 33.3827C52.6343 33.2303 52.1981 33.0359 51.8776 32.5735C51.5097 32.048 51.1787 31.5068 50.9212 30.9183C50.8423 30.7343 50.8371 30.582 51.0158 30.4296C51.247 30.2404 51.4099 29.9882 51.5255 29.7097C51.9196 28.7428 52.0405 27.7602 51.8828 26.7145C51.7672 25.9736 51.6096 25.259 51.3311 24.5654C50.9632 23.6511 50.4377 22.8471 49.6284 22.2533C48.7771 21.628 47.8365 21.7331 47.2321 22.5108C46.817 23.0415 46.6278 23.6721 46.5385 24.3237C46.4071 25.3063 46.5227 26.2732 46.7802 27.2295C47.0272 28.1333 47.3951 28.9793 47.9784 29.7097C48.4934 30.3455 49.0872 30.8867 49.9805 30.8972C50.0856 30.8972 50.1119 30.9656 50.1382 31.0444C50.3011 31.5436 50.5113 32.0217 50.774 32.4789C50.8161 32.5472 50.9317 32.6155 50.8634 32.6996C50.8056 32.7679 50.7005 32.7101 50.6164 32.6891C49.6337 32.4421 48.6457 32.2319 47.6525 32.0533C47.5002 32.027 47.374 31.9639 47.2532 31.8746C46.3335 31.16 45.6556 30.2457 45.0671 29.2578C44.2 27.8023 43.5694 26.2416 43.0334 24.639C42.923 24.3132 42.8337 24.0294 43.2436 23.8613C43.2593 23.856 43.2699 23.835 43.2804 23.8245C44.1737 23.031 44.5048 21.9538 44.6992 20.8346C44.8096 20.204 44.8201 19.5577 44.7938 18.9061C44.757 17.9603 44.5836 17.0512 44.2736 16.1685C43.9635 15.2804 43.5116 14.4765 42.7969 13.8512C42.3502 13.4571 41.8247 13.2048 41.2151 13.2732C40.6844 13.331 40.2377 13.5989 39.8856 14.0036C39.0028 15.023 38.6927 16.2578 38.6034 17.5557C38.5141 18.8746 38.6454 20.1725 39.0974 21.4284C39.3496 22.1325 39.6807 22.7946 40.1799 23.3568C40.6476 23.8875 41.1889 24.2974 41.9298 24.3552C42.0717 24.3657 42.0822 24.4761 42.119 24.5759C42.2451 24.9647 42.366 25.3588 42.5079 25.7424C42.7128 26.2994 42.9283 26.8512 43.149 27.4239C43.0807 27.3924 43.0281 27.3766 42.9861 27.3504C42.1873 26.8617 41.3623 26.4308 40.5057 26.0577C40.3586 25.9947 40.3008 25.8843 40.306 25.7267C40.3218 25.4114 40.2167 25.1224 40.0801 24.8491C39.8121 24.3237 39.4074 23.9138 38.9397 23.567C37.7626 22.6947 36.4278 22.2481 34.9774 22.122C34.0841 22.0432 33.2117 22.101 32.3867 22.4898C31.7614 22.7841 31.2937 23.2307 31.2306 23.9611C31.1833 24.5339 31.4355 25.0173 31.7929 25.4429C32.6074 26.4045 33.6742 26.9825 34.8618 27.3398C35.7394 27.6078 36.638 27.7287 37.5524 27.6656C38.4615 27.5973 39.3181 27.3924 39.9592 26.6778C40.0643 26.5622 40.1536 26.5674 40.2798 26.6305C40.8473 26.9037 41.4096 27.1822 41.9561 27.4922C42.7128 27.9231 43.3644 28.4591 43.8532 29.1842C44.2105 29.7149 44.5626 30.2457 44.9199 30.7711C45.1091 31.0496 45.3088 31.3176 45.5138 31.6014C45.3824 31.6539 45.2878 31.6276 45.1932 31.6066C44.3366 31.449 43.4748 31.3019 42.6235 31.1284C41.7196 30.9445 40.8158 30.7554 39.9119 30.5504C39.1552 30.377 38.3985 30.1984 37.6522 29.9934C36.4436 29.6571 35.2454 29.2736 34.0788 28.8164C32.7178 28.2804 31.404 27.6551 30.1533 26.9037C29.5385 26.5359 28.9394 26.1365 28.498 25.548C27.9357 24.7913 27.7413 23.8928 27.5468 22.9943C27.5311 22.9102 27.5468 22.8419 27.6257 22.7893C28.3719 22.3059 28.6451 21.5387 28.7765 20.7295C28.9552 19.5945 28.8133 18.4805 28.3508 17.4243C28.0934 16.8411 27.7623 16.3103 27.2 15.9688C26.6903 15.6588 26.1175 15.7323 25.6813 16.1369C25.0822 16.6887 24.8983 17.4243 24.7985 18.1863C24.6828 19.0533 24.7722 19.915 25.0507 20.7453C25.3713 21.6911 25.7917 22.5686 26.8427 22.9207C26.9372 22.9522 26.9793 23.0048 26.9951 23.1046C27.0949 23.5985 27.2 24.0925 27.3839 24.5654C27.426 24.6652 27.4733 24.7756 27.447 24.8964C27.3366 24.8912 27.2736 24.8176 27.2053 24.7546C26.6272 24.2238 26.0649 23.6721 25.5184 23.0993C24.4096 21.9381 23.306 20.7663 22.3128 19.4999C22.1815 19.3318 22.1815 19.1951 22.2603 19.0217C22.3811 18.7485 22.4495 18.4542 22.481 18.1652C22.5861 17.2404 22.5546 16.3209 22.4074 15.396C22.2971 14.7182 22.0869 14.0719 21.8346 13.4413C21.5193 12.6584 21.1199 11.9122 20.6417 11.2081C20.1898 10.546 19.7852 9.85238 19.2649 9.23759C19.0127 8.93807 18.7709 8.62805 18.5134 8.33379C18.1666 7.92918 17.8355 7.51406 17.4624 7.13047C16.0751 5.70121 14.651 4.30872 13.0955 3.05812C11.8763 2.0755 10.6309 1.12967 9.29613 0.315195C9.10695 0.199593 8.94405 0.0051688 8.66553 -0.00534049C8.66028 0.0577153 8.66553 0.0944972 8.68655 0.115516Z"></path>
</g>
<defs>
<linearGradient gradientUnits="userSpaceOnUse" y2="61.5989" x2="21.7044" y1="-16.9636" x1="39.6201" id="paint0_linear_9116_7032">
<stop stop-color="#5A4337"></stop>
<stop stop-color="#836138" offset="1"></stop>
</linearGradient>
<clipPath id="clip0_9116_7032">
<rect transform="translate(0 68) rotate(-90)" fill="white" height="68" width="68"></rect>
</clipPath>
</defs>
</svg>
